HIERARCHY
ROOT Hips
{
	OFFSET 0.00 0.00 0.00
	CHANNELS 6 Xposition Yposition Zposition Zrotation Xrotation Yrotation
		JOINT Spine
		{
			OFFSET 0.00 10.00 0.00
			CHANNELS 3 Zrotation Xrotation Yrotation
			JOINT Spine1
			{
				OFFSET 0.00 10.00 0.00
				CHANNELS 3 Zrotation Xrotation Yrotation
				JOINT Spine2
				{
					OFFSET 0.00 10.00 0.00
					CHANNELS 3 Zrotation Xrotation Yrotation
					JOINT Neck
					{
						OFFSET 0.00 10.00 0.00
						CHANNELS 3 Zrotation Xrotation Yrotation
						JOINT Head
						{
							OFFSET 0.00 10.00 0.00
							CHANNELS 3 Zrotation Xrotation Yrotation
						End Site
						{
							OFFSET 0.00 0.00 0.00
						}
					}
					End Site
					{
						OFFSET 0.00 0.00 0.00
					}
				}
					JOINT LeftArm
					{
						OFFSET 10.00 0.00 0.00
						CHANNELS 3 Zrotation Xrotation Yrotation
						JOINT LeftForeArm
						{
							OFFSET 20.00 0.00 0.00
							CHANNELS 3 Zrotation Xrotation Yrotation
							JOINT LeftHand
							{
								OFFSET 20.00 0.00 0.00
								CHANNELS 3 Zrotation Xrotation Yrotation
							End Site
							{
								OFFSET 0.00 0.00 0.00
							}
						}
						End Site
						{
							OFFSET 0.00 0.00 0.00
						}
					}
					End Site
					{
						OFFSET 0.00 0.00 0.00
					}
				}
					JOINT RightArm
					{
						OFFSET -10.00 0.00 0.00
						CHANNELS 3 Zrotation Xrotation Yrotation
						JOINT RightForeArm
						{
							OFFSET -20.00 0.00 0.00
							CHANNELS 3 Zrotation Xrotation Yrotation
							JOINT RightHand
							{
								OFFSET -20.00 0.00 0.00
								CHANNELS 3 Zrotation Xrotation Yrotation
							End Site
							{
								OFFSET 0.00 0.00 0.00
							}
						}
						End Site
						{
							OFFSET 0.00 0.00 0.00
						}
					}
					End Site
					{
						OFFSET 0.00 0.00 0.00
					}
				}
				End Site
				{
					OFFSET 0.00 0.00 0.00
				}
			}
			End Site
			{
				OFFSET 0.00 0.00 0.00
			}
		}
		End Site
		{
			OFFSET 0.00 0.00 0.00
		}
	}
		JOINT LeftUpLeg
		{
			OFFSET 5.00 -10.00 0.00
			CHANNELS 3 Zrotation Xrotation Yrotation
			JOINT LeftLeg
			{
				OFFSET 0.00 -20.00 0.00
				CHANNELS 3 Zrotation Xrotation Yrotation
				JOINT LeftFoot
				{
					OFFSET 0.00 -20.00 0.00
					CHANNELS 3 Zrotation Xrotation Yrotation
					JOINT LeftToeBase
					{
						OFFSET 0.00 -5.00 5.00
						CHANNELS 3 Zrotation Xrotation Yrotation
					End Site
					{
						OFFSET 0.00 0.00 0.00
					}
				}
				End Site
				{
					OFFSET 0.00 0.00 0.00
				}
			}
			End Site
			{
				OFFSET 0.00 0.00 0.00
			}
		}
		End Site
		{
			OFFSET 0.00 0.00 0.00
		}
	}
		JOINT RightUpLeg
		{
			OFFSET -5.00 -10.00 0.00
			CHANNELS 3 Zrotation Xrotation Yrotation
			JOINT RightLeg
			{
				OFFSET 0.00 -20.00 0.00
				CHANNELS 3 Zrotation Xrotation Yrotation
				JOINT RightFoot
				{
					OFFSET 0.00 -20.00 0.00
					CHANNELS 3 Zrotation Xrotation Yrotation
					JOINT RightToeBase
					{
						OFFSET 0.00 -5.00 5.00
						CHANNELS 3 Zrotation Xrotation Yrotation
					End Site
					{
						OFFSET 0.00 0.00 0.00
					}
				}
				End Site
				{
					OFFSET 0.00 0.00 0.00
				}
			}
			End Site
			{
				OFFSET 0.00 0.00 0.00
			}
		}
		End Site
		{
			OFFSET 0.00 0.00 0.00
		}
	}
	End Site
	{
		OFFSET 0.00 0.00 0.00
	}
}
MOTION
Frames: 17
Frame Time: 0.034483
-0.0762 0.1648 -0.0913 8.0034 0.3617 -5.1664 11.4062 14.5072 1.4565 11.4062 14.5072 1.4565 -67.9117 -19.4964 13.1981 -44.7256 54.1168 -23.7363 57.1720 -37.9295 -21.2116 -119.9378 -49.9174 -30.1180 13.3100 8.0533 -62.2075 40.2495 12.3751 -32.9630 106.8479 6.2417 -4.6335 133.5556 -48.2615 21.7596 2.0115 -1.4440 71.3432 -0.4477 -7.5323 0.0295 -6.1714 19.3226 -1.0516 25.5880 18.8617 4.3203 -0.6209 35.8862 1.9172 16.2547 4.1005 0.5858 18.9081 20.9842 3.5327 26.8720 -32.1536 -7.8771 -1.4004 3.0599 49.1763
-0.0761 0.1647 -0.0927 8.0513 0.3279 -4.6565 11.3393 15.7419 1.5726 11.3393 15.7419 1.5726 -67.3781 -20.4433 13.7090 -44.1322 54.8390 -23.7523 57.5137 -37.4097 -21.0513 -119.1614 -45.4603 -27.6378 -21.7193 -9.6407 -47.4595 26.9859 6.5947 -27.0028 107.0776 9.9243 -7.3416 131.1591 -48.9509 23.3558 -2.1269 1.4176 67.3661 -0.4756 -7.6323 0.0317 -6.0807 19.4648 -1.0439 25.7263 18.9752 4.3710 -1.3656 37.2671 4.0485 16.2264 4.0216 0.5735 19.7400 20.5968 3.6215 27.7842 -31.9025 -8.0873 -1.3419 3.0055 48.1134
-0.0768 0.1779 -0.0748 8.7225 0.2905 -3.8082 11.3109 16.0003 1.5948 11.3109 16.0003 1.5948 -66.9281 -20.1887 13.4225 -42.7482 55.9389 -23.4813 57.2021 -38.2249 -21.3986 -119.8524 -46.3983 -27.8760 -36.5499 -17.5922 -50.2130 29.5913 8.3687 -30.9641 107.7389 20.4775 -15.0237 127.7556 -14.4970 7.1379 -1.3218 0.7641 60.0589 -0.4058 -8.7449 0.0310 -6.0406 14.8156 -0.7861 25.7136 12.4297 2.8475 -2.0398 34.1971 6.6244 16.1550 4.1782 0.5932 20.1308 19.4125 3.4781 28.6102 -31.4083 -8.2016 -1.8185 4.1932 46.8762
-0.0774 0.1848 -0.0662 9.0498 0.2612 -3.3002 11.1958 16.2202 1.6004 11.1958 16.2202 1.6004 -66.5886 -20.5560 13.5826 -41.8394 56.7645 -23.3387 56.0921 -39.5388 -21.6793 -120.3400 -46.1275 -27.4404 -54.3935 -30.0388 -55.1427 33.0920 11.6082 -37.7768 107.6720 19.5956 -14.3881 127.4783 -18.7690 9.3233 -1.7431 1.0379 61.5370 -0.3317 -10.6211 0.0308 -6.1722 9.0797 -0.4906 25.4830 6.8173 1.5433 -1.3823 26.8739 5.7813 15.9164 4.0805 0.5707 20.2959 16.3372 2.9435 27.3723 -33.4432 -8.3685 -0.5523 1.4086 42.8174
-0.0764 0.1816 -0.0661 9.2520 0.2519 -3.1129 11.1501 16.6575 1.6374 11.1501 16.6575 1.6374 -66.4270 -20.4491 13.4699 -41.5780 55.6777 -22.6742 57.5061 -39.1836 -22.1004 -120.6545 -41.7567 -24.5221 -64.3434 -35.4014 -53.8032 27.7310 10.3563 -40.3202 108.4739 19.0603 -13.7891 124.6897 -25.1231 13.3196 -6.7594 4.1180 62.6647 -0.3580 -10.4825 0.0328 -5.7888 11.0987 -0.5629 25.3099 10.4501 2.3526 -1.0320 27.1324 4.2750 15.6635 3.4750 0.4781 20.6742 14.6609 2.6883 26.7416 -34.3316 -8.3987 0.0498 -0.1312 41.5408
-0.0756 0.1767 -0.0708 9.1622 0.2555 -3.1881 11.0029 16.8757 1.6371 11.0029 16.8757 1.6371 -67.5475 -18.7949 12.6322 -41.3308 55.5196 -22.4574 58.2881 -38.9884 -22.3325 -120.2253 -41.9298 -24.8384 -78.8465 -45.1142 -53.6127 6.6736 3.5207 -55.5897 108.7923 4.9293 -3.5306 122.8639 -56.8095 32.8158 -15.1958 8.7347 59.5862 -0.6064 -10.4229 0.0553 -5.1055 10.2708 -0.4591 25.8752 10.6436 2.4517 -0.3726 22.9616 1.8346 15.1206 2.5760 0.3420 20.6940 12.1299 2.2227 25.4694 -36.9020 -8.6242 2.2044 -5.8355 41.3614
-0.0740 0.1538 -0.1125 7.8693 0.2819 -4.0962 10.2139 14.8419 1.3338 10.2139 14.8419 1.3338 -72.0146 -15.2746 11.1317 -39.2607 59.3168 -22.9617 53.5123 -44.3486 -23.2238 -121.3957 4.4441 2.4950 -98.4355 -27.1671 -23.5474 -22.2304 -12.9290 -59.9463 107.6801 -14.3180 10.4892 123.5422 -93.6314 59.5387 -30.2180 14.8714 51.5976 -0.7021 -11.6700 0.0718 -4.2516 13.3228 -0.4968 28.1516 11.8578 2.9831 0.2366 25.0468 -1.0653 14.9946 -0.6053 -0.0797 20.8614 12.7845 2.3629 24.0708 -36.7075 -8.0918 2.4681 -6.5512 41.2523
-0.0704 0.1332 -0.1682 6.2107 0.3824 -7.0403 9.0655 15.9310 1.2711 9.0655 15.9310 1.2711 -76.3144 -11.7928 9.2783 -37.2138 62.9850 -23.3079 46.6793 -49.7772 -22.6403 -123.2367 18.5594 10.0898 -103.9418 -15.1068 -11.8417 -45.4489 -26.8424 -59.3463 108.3698 -22.0822 16.0299 127.0176 -110.7041 71.5957 -38.2384 16.0367 44.2297 -0.6705 -12.1177 0.0712 -2.9354 19.2029 -0.4967 28.9773 20.6278 5.3847 1.4691 31.3386 -5.2338 14.9470 -2.2583 -0.2963 21.4322 13.5936 2.5842 23.5605 -35.4015 -7.6160 1.6914 -4.7275 39.3548
-0.0663 0.1165 -0.1915 5.1081 0.3871 -8.6622 8.3499 16.4550 1.2094 8.3499 16.4550 1.2094 -78.8763 -9.7338 8.0125 -35.3004 65.6709 -23.2070 42.0144 -54.3940 -22.3253 -125.9076 44.0917 23.3624 -111.0462 11.7058 8.0531 -68.5054 -34.7234 -49.3232 106.3103 -23.3839 17.6288 131.8472 -122.4734 78.2919 -41.4552 16.2437 41.3251 -0.5984 -12.2515 0.0642 -3.0995 19.8592 -0.5427 28.2943 21.4041 5.4546 1.1727 31.0689 -4.2169 15.0268 -2.4416 -0.3221 21.0652 15.0855 2.8206 23.3844 -34.1492 -7.2742 1.8160 -4.9183 40.5116
-0.0659 0.1056 -0.1914 4.4727 0.3370 -8.6137 8.0641 16.5419 1.1741 8.0641 16.5419 1.1741 -79.4725 -10.1141 8.4145 -34.9304 66.1274 -23.1506 41.4393 -54.8615 -22.2151 -127.0985 46.2797 24.0063 -111.9265 9.4844 6.4141 -72.1949 -34.7453 -46.4458 106.4943 -21.9906 16.5122 133.9878 -127.3234 81.2373 -39.6540 15.2503 40.7404 -0.4387 -12.9292 0.0497 -3.3651 20.1842 -0.5991 27.6241 22.0429 5.4828 1.1152 31.6422 -3.9341 15.2443 -1.7093 -0.2288 20.7095 17.0811 3.1436 22.7903 -32.6983 -6.7672 1.8713 -4.8304 42.3341
-0.0648 0.0983 -0.2064 3.9901 0.3483 -9.9735 7.8280 16.2621 1.1201 7.8280 16.2621 1.1201 -79.8702 -9.2897 7.7822 -34.7198 67.1859 -23.4608 40.6964 -54.2096 -21.4962 -127.9540 47.3592 24.1703 -113.1722 3.5347 2.3323 -72.8140 -31.9110 -42.3819 106.1771 -22.7747 17.2053 126.8020 -119.9773 81.8447 -34.1077 13.4105 41.9389 -0.4006 -12.8948 0.0453 -3.2552 24.1515 -0.6966 27.0392 24.6741 6.0205 1.8279 36.4795 -5.5428 15.3032 -1.9751 -0.2654 20.5345 17.7331 3.2372 23.2087 -32.1450 -6.7719 1.9588 -4.9197 43.3998
-0.0602 0.0985 -0.2102 3.6949 0.3352 -10.3644 7.6927 17.0404 1.1542 7.6927 17.0404 1.1542 -80.9978 -5.3106 4.5364 -34.3516 68.2739 -23.6713 39.3492 -53.9639 -20.6343 -128.2364 41.9286 21.0618 -114.2675 2.1566 1.3935 -73.5161 -32.3326 -42.4220 108.3680 -35.2993 25.8629 51.8103 -45.1308 81.1006 -24.2563 8.1303 36.5998 -0.6562 -12.0704 0.0694 -3.0810 22.9616 -0.6259 27.1179 22.8742 5.5865 1.7821 34.1600 -5.7954 15.2617 -1.5029 -0.2014 20.5631 17.8893 3.2708 22.9461 -32.4503 -6.7602 3.1294 -8.1362 42.0213
-0.0588 0.0983 -0.2119 3.5808 0.3277 -10.4555 7.6321 17.4523 1.1731 7.6321 17.4523 1.1731 -80.7926 -6.4418 5.4833 -35.1411 68.0796 -24.1479 40.4171 -52.2878 -20.4833 -129.3230 38.4471 18.7516 -115.1429 -2.9295 -1.8614 -72.5381 -32.9121 -43.8561 111.6274 -32.9235 22.6981 25.7820 -22.8640 82.9250 -34.5307 12.9248 40.0482 -0.6907 -11.8463 0.0717 -3.0603 22.6165 -0.6121 27.2777 22.2278 5.4580 1.7783 33.4742 -5.9087 15.7178 -1.3259 -0.1830 20.3909 18.1057 3.2827 22.8261 -32.1733 -6.6636 3.4716 -8.9210 42.4608
-0.0561 0.0978 -0.2173 3.2092 0.3362 -11.9567 7.4556 17.8153 1.1701 7.4556 17.8153 1.1701 -80.8068 -5.9393 5.0566 -34.7418 68.1325 -23.8873 40.1720 -52.5997 -20.4884 -131.4658 44.8541 21.0805 -117.9442 1.8655 1.1222 -81.3891 -36.0161 -41.4139 112.7768 -36.2091 24.5210 12.1404 -10.8941 83.7644 -38.2638 13.9772 38.9228 -1.2755 -10.8517 0.1212 -2.7559 22.9241 -0.5589 27.2611 23.3075 5.7263 4.1635 34.4023 -13.3939 15.7020 -1.5649 -0.2158 20.3465 18.6595 3.3773 22.7324 -31.8960 -6.5754 2.9133 -8.2695 38.7588
-0.0569 0.0945 -0.2118 2.8825 0.3279 -12.9756 7.3880 17.2439 1.1217 7.3880 17.2439 1.1217 -80.6550 -5.8574 4.9735 -35.3564 67.5593 -24.0707 39.9727 -52.3432 -20.2680 -131.4181 39.9753 18.6450 -119.6171 1.3553 0.7885 -92.5158 -40.2763 -38.6765 112.1828 -31.8058 21.6835 0.1750 -0.1597 84.7580 -40.9132 14.0195 36.4871 -1.8341 -8.0609 0.1292 -2.2670 25.7217 -0.5176 26.6874 26.2500 6.3312 7.7138 40.8682 -20.5133 15.7320 -1.6517 -0.2282 20.4386 19.3163 3.5145 22.6058 -31.0454 -6.3550 1.8449 -5.4217 37.5610
-0.0563 0.0920 -0.2135 2.6539 0.2996 -12.8786 7.2703 17.3169 1.1086 7.2703 17.3169 1.1086 -80.6371 -6.1295 5.2030 -35.0073 67.8796 -23.9650 38.8408 -52.3694 -19.6703 -131.4683 37.0733 17.1911 -120.1599 -0.6289 -0.3619 -89.8111 -40.1039 -40.2257 113.4831 -32.4585 21.6157 1.9955 -1.7995 84.0864 -40.2941 14.3639 37.9113 -2.7660 -7.9430 0.1921 -1.5568 28.7402 -0.3989 27.0592 28.9954 7.1206 9.1980 46.3393 -21.2898 16.6288 -1.4800 -0.2163 20.0476 19.3282 3.4481 22.4786 -31.3235 -6.3778 2.0842 -5.6226 40.6519
-0.0538 0.0921 -0.2169 2.4036 0.2933 -13.9121 7.2549 17.5184 1.1193 7.2549 17.5184 1.1193 -80.6303 -6.1383 5.2098 -34.7620 68.1671 -23.9168 38.3268 -52.7242 -19.5438 -132.1925 44.7976 20.7042 -120.5369 6.6652 3.8095 -88.4363 -36.0467 -36.9771 113.5290 -37.3955 25.0079 1.6005 -1.4506 84.3752 -37.6974 12.7318 36.1958 -3.1718 -7.6456 0.2120 -2.0098 28.5060 -0.5106 26.9463 28.4257 6.9450 8.3277 43.7655 -20.5473 16.2234 -1.1552 -0.1647 20.3516 19.4996 3.5331 22.3425 -31.4010 -6.3547 1.3669 -4.2639 35.5353
